<?xml version="1.0" encoding="utf-8"?>
<!-- Generator: Adobe Illustrator 22.1.0, SVG Export Plug-In . SVG Version: 6.00 Build 0)  -->
<svg version="1.1" id="Capa_1" xmlns="http://www.w3.org/2000/svg" xmlns:xlink="http://www.w3.org/1999/xlink" x="0px" y="0px"
	 viewBox="0 0 500 500" style="enable-background:new 0 0 500 500;" xml:space="preserve">
<style type="text/css">
	.st0{fill:#2B2C2F;}
	.st1{fill:#5EE9B5;}
</style>
<path class="st0" d="M401.5,500h-303C44.1,500,0,455.9,0,401.5v-303C0,44.1,44.1,0,98.5,0h303C455.9,0,500,44.1,500,98.5v303
	C500,455.9,455.9,500,401.5,500z"/>
<g>
	<path class="st1" d="M180.5,22h41.9l0.1,150.4c-0.1,10.3-2.1,19.8-5.9,28.2c-3.8,8.5-9.1,15.8-15.7,22
		c-6.7,6.2-14.5,10.9-23.5,14.3c-9,3.4-18.7,5.1-29,5.1c-10.9,0-20.9-1.4-29.8-4.2c-8.9-2.8-16.6-6.9-23-12.4
		c-6.4-5.5-11.4-12.4-15-20.8s-5.4-18.1-5.5-29.4h42c0.1,11.6,2.7,20,7.8,25.3c5.1,5.2,12.9,7.8,23.6,7.8c4.8,0,9.1-0.9,13.1-2.8
		c4-1.8,7.4-4.3,10.1-7.5c2.8-3.2,4.9-7,6.5-11.4c1.5-4.4,2.3-9.2,2.3-14.2V22z"/>
	<path class="st1" d="M368.1,193.7h-65.1L290.1,239H246l71.1-217h38l69.8,217h-44.1L368.1,193.7z M313.2,158.1h45L336,78.2
		L313.2,158.1z"/>
	<path class="st1" d="M151.8,396.9H120V478H78.1V261h72.7c12,0,22.9,1.4,32.6,4.2c9.7,2.8,18.1,7,25,12.4c6.9,5.5,12.2,12.3,16,20.4
		c3.7,8.1,5.6,17.6,5.6,28.3c0,7.8-0.9,14.7-2.8,20.9c-1.8,6.2-4.5,11.8-7.9,16.7s-7.6,9.2-12.4,12.9c-4.8,3.7-10.2,6.9-16.2,9.5
		l46.7,89.6v1.9h-44.9L151.8,396.9z M120,362.9h31c11.8,0,20.9-3,27.4-9c6.4-6,9.6-14.2,9.6-24.7c0-10.8-3.1-19.3-9.4-25.3
		c-6.3-6-15.5-9-27.7-9H120V362.9z"/>
	<path class="st1" d="M261,478V261h72.9c11.8,0,22.6,1.2,32.3,3.6c9.7,2.4,18,6,24.8,10.9c6.9,4.9,12.1,11,15.9,18.5
		c3.7,7.5,5.6,16.2,5.6,26.4c-0.1,10.1-2.8,19.2-8.1,27.3c-5.3,8-13.1,14.2-23.5,18.3c6.3,1.6,11.7,4,16.2,7.2
		c4.6,3.2,8.4,6.9,11.4,11.3c3,4.3,5.3,9,6.7,14.2c1.4,5.1,2.2,10.4,2.2,15.9c0,10.4-1.8,19.6-5.4,27.6c-3.6,8-8.7,14.6-15.4,20
		c-6.7,5.4-14.8,9.4-24.3,12.1s-20.3,4-32.2,4H261z M303.1,352h31.2c11.6-0.1,20.6-2.5,26.8-7.3c6.3-4.8,9.4-11.8,9.5-21
		c0-10.1-3.1-17.4-9.4-21.8c-6.3-4.4-15.3-6.7-27.1-6.8h-31V352z M303.1,382.3v61.9h37.3c11.4-0.1,20.1-2.9,26.2-8.4
		c6-5.5,9-12.7,9-21.7c0.1-9.9-2.6-17.7-8-23.3c-5.5-5.6-13.9-8.4-25.3-8.5H303.1z"/>
</g>
</svg>
